# xmcd
#
# Track frame offsets:
#	150
#	16056
#	45104
#	66135
#	97232
#	114551
#	140236
#	156411
#	167337
#	185111
#	204166
#	225032
#	240924
#	261233
#	281694
#	300208
#	319838
#	331885
#
# Disc length: 4749 seconds
#
# Revision: 0
# Processed by: cddbd v1.5.2PL0 Copyright (c) Steve Scherf et al.
# Submitted via: EasyCDDAExtractor 8.2.3.1
#
DISCID=e8128b12
DTITLE=Various Artist - Woman and the Blues   vol.1
DYEAR=2001
DGENRE=Blues
TTITLE0=BEVERLY SKEETE - Spooky- Spooky
TTITLE1=DIANE SCHUUR - I'm Ashhamed to Sing the Blues
TTITLE2=KOKO TAYLOR - Keep Your Booty Our Of My Bed
TTITLE3=SISTA MONICA - A Chance to Breathe
TTITLE4=DEBORAH COLEMAN - On the Hunt
TTITLE5=LALAH HATHAWAY - Fever
TTITLE6=BIG TIME SARAH - Cadillac Assembly Line
TTITLE7=DINAH WASHINGTON - Cry Me a River
TTITLE8=ELENA FIGUEROA - Right Time
TTITLE9=TRACY CHAPMAN - Speak the World
TTITLE10=RUTH BROWN - Good Day for the Blues
TTITLE11=SHANNON CURFMAN - No Riders
TTITLE12=ANN PEEBLES - Tears in Heaven
TTITLE13=\\KOKO TAYLOR - Blues Power
TTITLE14=BEVERLY SKEETE - I Put a Spell on You
TTITLE15=DEBORAH COLEMAN - My Heart Bleeds Blue
TTITLE16=SADE - All About Our Love
TTITLE17=ETTA JAMES - A Change Is Gonna Do Me Good
EXTD=
EXTT0=
EXTT1=
EXTT2=
EXTT3=
EXTT4=
EXTT5=
EXTT6=
EXTT7=
EXTT8=
EXTT9=
EXTT10=
EXTT11=
EXTT12=
EXTT13=
EXTT14=
EXTT15=
EXTT16=
EXTT17=
PLAYORDER=
